<svg width="720" height="420" viewBox="0 0 720 420" fill="none" xmlns="http://www.w3.org/2000/svg" role="img" aria-labelledby="title desc">
  <title id="title">Locked broadcast room case cover</title>
  <desc id="desc">Abstract case cover with monitor, lock, and missing film fragment.</desc>
  <defs>
    <linearGradient id="bg" x1="68" y1="18" x2="682" y2="393" gradientUnits="userSpaceOnUse">
      <stop stop-color="#07111F"/>
      <stop offset=".48" stop-color="#13233D"/>
      <stop offset="1" stop-color="#06101E"/>
    </linearGradient>
    <linearGradient id="screen" x1="165" y1="94" x2="524" y2="301" gradientUnits="userSpaceOnUse">
      <stop stop-color="#203758"/>
      <stop offset="1" stop-color="#0B1426"/>
    </linearGradient>
  </defs>
  <rect width="720" height="420" rx="34" fill="url(#bg)"/>
  <rect x="124" y="86" width="372" height="228" rx="24" fill="#0A1425" stroke="#7DD3FC" stroke-width="6"/>
  <rect x="150" y="112" width="320" height="164" rx="16" fill="url(#screen)"/>
  <path d="M227 276h166v34H227z" fill="#14233A"/>
  <path d="M190 336h240" stroke="#7DD3FC" stroke-opacity=".38" stroke-width="10" stroke-linecap="round"/>
  <path d="M212 163h132M212 198h86M212 232h164" stroke="#F7F3E8" stroke-opacity=".32" stroke-width="8" stroke-linecap="round"/>
  <rect x="454" y="158" width="126" height="112" rx="18" fill="#101B2E" stroke="#FFD166" stroke-width="6"/>
  <path d="M481 158v-24a36 36 0 0 1 72 0v24" stroke="#5EEAD4" stroke-width="8" stroke-linecap="round"/>
  <circle cx="517" cy="211" r="10" fill="#F7F3E8"/>
  <path d="M517 221v24" stroke="#F7F3E8" stroke-width="7" stroke-linecap="round"/>
  <path d="M553 71l70 22-45 46 6 69-63-36-65 25 15-68-43-54 69-6 38-59 18 61Z" fill="#7DD3FC" opacity=".18"/>
  <path d="M539 302h118v34H539v-34Z" fill="#F7F3E8" opacity=".9"/>
  <path d="M552 302v34M581 302v34M610 302v34M639 302v34" stroke="#0B1426" stroke-width="6"/>
  <path d="M602 302l42 34" stroke="#FB7185" stroke-width="8" stroke-linecap="round"/>
</svg>
