<svg width="640" height="480" viewBox="0 0 640 480" fill="none" xmlns="http://www.w3.org/2000/svg" role="img" aria-labelledby="title desc">
  <title id="title">Messenger detective phone illustration</title>
  <desc id="desc">A stylized phone with chat bubbles, evidence pins, and a magnifier.</desc>
  <defs>
    <linearGradient id="bg" x1="72" y1="36" x2="570" y2="446" gradientUnits="userSpaceOnUse">
      <stop stop-color="#1D2B47"/>
      <stop offset="1" stop-color="#07111F"/>
    </linearGradient>
    <linearGradient id="screen" x1="197" y1="68" x2="455" y2="410" gradientUnits="userSpaceOnUse">
      <stop stop-color="#12213A"/>
      <stop offset="1" stop-color="#0B1426"/>
    </linearGradient>
    <linearGradient id="accent" x1="212" y1="102" x2="418" y2="324" gradientUnits="userSpaceOnUse">
      <stop stop-color="#FFD166"/>
      <stop offset="1" stop-color="#5EEAD4"/>
    </linearGradient>
    <filter id="shadow" x="130" y="34" width="394" height="420" filterUnits="userSpaceOnUse" color-interpolation-filters="sRGB">
      <feDropShadow dx="0" dy="24" stdDeviation="24" flood-color="#000000" flood-opacity=".38"/>
    </filter>
  </defs>
  <rect width="640" height="480" rx="40" fill="url(#bg)"/>
  <path d="M86 94h122M474 76h78M78 372h112M486 390h74" stroke="#5EEAD4" stroke-opacity=".22" stroke-width="4" stroke-linecap="round"/>
  <g filter="url(#shadow)">
    <rect x="186" y="48" width="268" height="384" rx="38" fill="#091221" stroke="#31415E" stroke-width="4"/>
    <rect x="206" y="82" width="228" height="314" rx="24" fill="url(#screen)"/>
    <rect x="282" y="64" width="76" height="6" rx="3" fill="#41516E"/>
    <circle cx="320" cy="414" r="8" fill="#41516E"/>
  </g>
  <rect x="230" y="112" width="146" height="42" rx="16" fill="#F7F3E8"/>
  <rect x="250" y="124" width="91" height="5" rx="2.5" fill="#182033" opacity=".82"/>
  <rect x="250" y="136" width="65" height="5" rx="2.5" fill="#182033" opacity=".38"/>
  <rect x="276" y="176" width="132" height="48" rx="17" fill="#1B304F" stroke="#5EEAD4" stroke-opacity=".36"/>
  <rect x="294" y="190" width="82" height="5" rx="2.5" fill="#DCE8F8" opacity=".82"/>
  <rect x="294" y="203" width="58" height="5" rx="2.5" fill="#DCE8F8" opacity=".42"/>
  <rect x="226" y="246" width="166" height="52" rx="18" fill="#F7F3E8"/>
  <rect x="246" y="262" width="108" height="5" rx="2.5" fill="#182033" opacity=".82"/>
  <rect x="246" y="276" width="72" height="5" rx="2.5" fill="#182033" opacity=".42"/>
  <rect x="270" y="320" width="138" height="42" rx="16" fill="#192943" stroke="#FFD166" stroke-opacity=".6"/>
  <path d="M392 311c16 0 29 13 29 29s-13 29-29 29-29-13-29-29 13-29 29-29Z" fill="#0B1426" stroke="#FFD166" stroke-width="8"/>
  <path d="M414 362l34 34" stroke="#FFD166" stroke-width="12" stroke-linecap="round"/>
  <path d="M392 330v20M382 340h20" stroke="#5EEAD4" stroke-width="5" stroke-linecap="round"/>
  <path d="M196 236l-44 26 38 14 15 39 43-79h-52Z" fill="url(#accent)" stroke="#0B1426" stroke-width="4" stroke-linejoin="round"/>
  <circle cx="193" cy="257" r="10" fill="#0B1426" opacity=".62"/>
  <path d="M476 166l43 14-30 33 3 45-40-24-42 17 10-44-29-35 45-4 24-39 16 37Z" fill="#FFD166" opacity=".9"/>
  <path d="M486 166l26 9-19 20 2 28-25-15-26 11 6-27-18-22 28-3 15-24 11 23Z" fill="#0E1728" opacity=".38"/>
</svg>
