<svg width="1200" height="630" viewBox="0 0 1200 630" fill="none" xmlns="http://www.w3.org/2000/svg" role="img" aria-labelledby="title desc">
  <title id="title">톡탐정 SNS preview image</title>
  <desc id="desc">A custom open graph image for a messenger detective game.</desc>
  <defs>
    <linearGradient id="bg" x1="80" y1="48" x2="1112" y2="602" gradientUnits="userSpaceOnUse">
      <stop stop-color="#08111F"/>
      <stop offset=".48" stop-color="#111C2E"/>
      <stop offset="1" stop-color="#241A34"/>
    </linearGradient>
    <linearGradient id="accent" x1="150" y1="80" x2="870" y2="560" gradientUnits="userSpaceOnUse">
      <stop stop-color="#FFD166"/>
      <stop offset="1" stop-color="#5EEAD4"/>
    </linearGradient>
    <filter id="shadow" x="584" y="44" width="406" height="540" filterUnits="userSpaceOnUse" color-interpolation-filters="sRGB">
      <feDropShadow dx="0" dy="28" stdDeviation="26" flood-color="#000000" flood-opacity=".42"/>
    </filter>
  </defs>
  <rect width="1200" height="630" fill="url(#bg)"/>
  <path d="M82 102h280M104 520h230M880 88h210M908 532h178" stroke="#5EEAD4" stroke-opacity=".18" stroke-width="8" stroke-linecap="round"/>
  <circle cx="1018" cy="182" r="98" fill="#FFD166" opacity=".08"/>
  <circle cx="146" cy="454" r="120" fill="#5EEAD4" opacity=".07"/>
  <g>
    <rect x="80" y="86" width="104" height="34" rx="17" fill="#FFD166"/>
    <text x="132" y="109" text-anchor="middle" font-family="Arial, sans-serif" font-size="18" font-weight="800" fill="#08111F">Messenger Mystery</text>
    <text x="80" y="240" font-family="Arial, 'Noto Sans KR', sans-serif" font-size="96" font-weight="900" fill="#FFFFFF">톡탐정</text>
    <text x="84" y="312" font-family="Arial, 'Noto Sans KR', sans-serif" font-size="46" font-weight="800" fill="#FFF1BD">대화 속 진실을 찾아라</text>
    <text x="86" y="376" font-family="Arial, 'Noto Sans KR', sans-serif" font-size="30" font-weight="600" fill="#D7E2F2">단톡방 속 거짓말, 끝까지 읽어야 보인다.</text>
    <text x="86" y="430" font-family="Arial, 'Noto Sans KR', sans-serif" font-size="24" fill="#9FB0C8">채팅 기록, 타임라인, 자료 메모를 뒤져 사건을 재구성하세요.</text>
  </g>
  <g filter="url(#shadow)">
    <rect x="662" y="70" width="286" height="490" rx="42" fill="#091221" stroke="#31415E" stroke-width="6"/>
    <rect x="686" y="118" width="238" height="382" rx="28" fill="#12213A"/>
    <rect x="756" y="92" width="98" height="8" rx="4" fill="#43526D"/>
    <rect x="716" y="154" width="150" height="52" rx="18" fill="#F7F3E8"/>
    <rect x="738" y="171" width="96" height="7" rx="3.5" fill="#182033" opacity=".8"/>
    <rect x="738" y="188" width="66" height="7" rx="3.5" fill="#182033" opacity=".34"/>
    <rect x="746" y="240" width="146" height="56" rx="18" fill="#1B304F" stroke="#5EEAD4" stroke-opacity=".5"/>
    <rect x="768" y="258" width="82" height="7" rx="3.5" fill="#DCE8F8" opacity=".9"/>
    <rect x="768" y="277" width="54" height="7" rx="3.5" fill="#DCE8F8" opacity=".42"/>
    <rect x="720" y="332" width="176" height="64" rx="20" fill="#F7F3E8"/>
    <rect x="744" y="354" width="108" height="7" rx="3.5" fill="#182033" opacity=".76"/>
    <rect x="744" y="374" width="72" height="7" rx="3.5" fill="#182033" opacity=".36"/>
  </g>
  <path d="M604 250h88l-16 76 40 34v17h-66l-8 55-9-55h-66v-17l41-34-16-76h12Z" fill="url(#accent)" stroke="#08111F" stroke-width="8" stroke-linejoin="round"/>
  <circle cx="642" cy="326" r="17" fill="#08111F" opacity=".58"/>
  <circle cx="930" cy="406" r="58" fill="#08111F" stroke="#FFD166" stroke-width="14"/>
  <path d="M974 450l76 76" stroke="#FFD166" stroke-width="18" stroke-linecap="round"/>
  <path d="M930 386v40M910 406h40" stroke="#5EEAD4" stroke-width="9" stroke-linecap="round"/>
</svg>
