<svg width="64" height="64" viewBox="0 0 64 64" fill="none" xmlns="http://www.w3.org/2000/svg" role="img" aria-labelledby="title desc">
  <title id="title">톡탐정 favicon</title>
  <desc id="desc">A custom chat detective icon with a bubble, pin, and magnifier.</desc>
  <rect width="64" height="64" rx="14" fill="#08111F"/>
  <path d="M13 16h25c6.1 0 11 4.9 11 11v4c0 6.1-4.9 11-11 11H27l-11 8 3-8h-6C6.9 42 2 37.1 2 31v-4c0-6.1 4.9-11 11-11Z" fill="#F7F3E8"/>
  <path d="M17 26h20M17 34h13" stroke="#182033" stroke-width="4" stroke-linecap="round"/>
  <path d="M39 8h14l-4 16 8 7v4H46l-2 11-2-11H31v-4l8-7-4-16h4Z" fill="#FFD166" stroke="#08111F" stroke-width="3" stroke-linejoin="round"/>
  <circle cx="43" cy="24" r="11" fill="#08111F" stroke="#5EEAD4" stroke-width="5"/>
  <path d="M51 32l9 9" stroke="#5EEAD4" stroke-width="6" stroke-linecap="round"/>
</svg>
